# xmcd CD database file generated by Grip 2.95
# 
# Track frame offsets:
#       150
#       16633
#       38606
#       55681
#       81262
#       95504
#       108614
#       126660
#       145600
# 
# Disc length: 2248 seconds
# 
# Revision: 3
# Processed by: cddbd v1.4b41PL2 Copyright (c) Steve Scherf et al.
# Submitted via: Grip 2.95
# 
DISCID=6e08c609
DTITLE=Mr. David Booker - Now Booking...
DYEAR=1900
DGENRE=
TTITLE0=Cherokee Boogie
TTITLE1=Your Feets' Too Big
TTITLE2=You've Got To Do Better
TTITLE3=Satin Doll
TTITLE4=Poor Joe
TTITLE5=Lady Be Good
TTITLE6=Pledging My Love
TTITLE7=Sweet Georgia Brown
TTITLE8=Boogie Woogie On The St. Louis Blues
EXTD=
EXTT0=
EXTT1=
EXTT2=
EXTT3=
EXTT4=
EXTT5=
EXTT6=
EXTT7=
EXTT8=
PLAYORDER=
